;TYPE=PLATED
;Layer: PTH_Through
;EasyEDA Pro v2.2.32.3, 2024-12-05 12:24:41
;Gerber Generator version 0.3
M48
METRIC,LZ,000.00000
;Hole size 1 = 0.30500 METRIC
T01C0.30500
;Hole size 2 = 0.60000 METRIC
T02C0.60000
;Hole size 3 = 0.70002 METRIC
T03C0.70002
;Hole size 4 = 0.71120 METRIC
T04C0.71120
;Hole size 5 = 1.10002 METRIC
T05C1.10002
%
G05
G90
T01
X10.795Y-27.76679
X6.604Y-27.813
X20.193Y-25.908
X18.415Y-25.908
X18.542Y-14.605
X20.955Y-27.559
X23.495Y-7.239
X18.542Y-7.366
X3.15321Y-5.73679
X23.495Y-11.049
X23.495Y-10.033
X14.478Y-11.049
X11.557Y-18.288
X9.525Y-17.526
X10.16Y-10.541
X10.3505Y-24.0665
X18.542Y-12.446
X11.303Y-24.003
X18.542Y-13.462
X9.652Y-20.955
X12.446Y-17.018
X13.462Y-17.018
X15.4305Y-14.986
X16.383Y-14.986
X11.176Y-12.3949
X14.478Y-7.366
X10.16Y-9.525
X6.477Y-8.89
X10.16Y-8.382
X7.112Y-21.59
X10.91145Y-13.1095
X23.622Y-5.461
T02
X17.653Y-34.54385
X18.92295Y-34.54375
X20.19295Y-34.54375
X21.46295Y-34.54377
X22.733Y-34.54385
T03
X3.17273Y-31.87903G85X2.57275Y-31.87903
X3.17273Y-23.23897G85X2.57275Y-23.23897
X7.6028Y-31.87903G85X6.50283Y-31.87903
X7.6028Y-23.23897G85X6.50283Y-23.23897
T04
X24.257Y-32.512
X24.257Y-29.972
X24.257Y-27.432
X24.257Y-24.892
T05
X1.651Y-8.509
X1.651Y-11.049
X1.651Y-13.589
X1.651Y-16.129
X1.651Y-18.669
X26.416Y-8.509
X26.416Y-11.049
X26.416Y-13.589
X26.416Y-16.129
X26.416Y-18.669
M30