;TYPE=PLATED
;Layer: PTH_Through_Via
;EasyEDA Pro v2.2.32.3, 2024-12-05 12:24:41
;Gerber Generator version 0.3
M48
METRIC,LZ,000.00000
;Hole size 1 = 0.30500 METRIC
T01C0.30500
%
G05
G90
T01
X10.795Y-27.76679
X6.604Y-27.813
X20.193Y-25.908
X18.415Y-25.908
X18.542Y-14.605
X20.955Y-27.559
X23.495Y-7.239
X18.542Y-7.366
X3.15321Y-5.73679
X23.495Y-11.049
X23.495Y-10.033
X14.478Y-11.049
X11.557Y-18.288
X9.525Y-17.526
X10.16Y-10.541
X10.3505Y-24.0665
X18.542Y-12.446
X11.303Y-24.003
X18.542Y-13.462
X9.652Y-20.955
X12.446Y-17.018
X13.462Y-17.018
X15.4305Y-14.986
X16.383Y-14.986
X11.176Y-12.3949
X14.478Y-7.366
X10.16Y-9.525
X6.477Y-8.89
X10.16Y-8.382
X7.112Y-21.59
X10.91145Y-13.1095
X23.622Y-5.461
M30