G04 Layer: TopPasteMaskLayer*
G04 EasyEDA Pro v2.2.32.3, 2024-12-05 12:24:41*
G04 Gerber Generator version 0.3*
G04 Scale: 100 percent, Rotated: No, Reflected: No*
G04 Dimensions in millimeters*
G04 Leading zeros omitted, absolute positions, 3 integers and 5 decimals*
%FSLAX35Y35*%
%MOMM*%
%AMPolygonMacro1*4,1,5,-0.12499,0.72499,0.72499,0.72499,0.72499,-0.72499,-0.72499,-0.72499,-0.72499,0.12499,-0.12499,0.72499,0*%
%ADD10R,0.8X0.9*%
%ADD11R,0.8X0.8*%
%ADD12R,2.49999X1.1*%
%ADD13R,2.34X3.59999*%
%ADD14R,1.07201X0.532*%
%ADD15R,1.0016X1.2*%
%ADD16R,1.0X1.2*%
%ADD17R,0.6X0.4*%
%ADD18R,0.6X0.4*%
%ADD19R,0.8X0.9*%
%ADD20R,0.8X0.4*%
%ADD21R,0.4X0.8*%
%ADD22R,0.8X0.4*%
%ADD23R,0.4X0.8*%
%ADD24R,0.7X0.7*%
%ADD25PolygonMacro1*%
%ADD26R,1.45001X1.45001*%
%ADD27R,1.25001X0.7*%
G75*


G04 PolygonModel Start*
G36*
G01X221701Y-3296798D02*
G01X221701Y-3376798D01*
G01X226703Y-3381799D01*
G01X249499Y-3381799D01*
G01X249499Y-3344799D01*
G01X282499Y-3344799D01*
G01X282499Y-3381799D01*
G01X306702Y-3381799D01*
G01X311701Y-3376798D01*
G01X311701Y-3296798D01*
G01X306702Y-3291799D01*
G01X226703Y-3291799D01*
G01X221701Y-3296798D01*
G37*
G36*
G01X311699Y-3535802D02*
G01X311699Y-3455802D01*
G01X306697Y-3450801D01*
G01X283901Y-3450801D01*
G01X283901Y-3487801D01*
G01X250901Y-3487801D01*
G01X250901Y-3450801D01*
G01X226698Y-3450801D01*
G01X221699Y-3455802D01*
G01X221699Y-3535802D01*
G01X226698Y-3540801D01*
G01X306697Y-3540801D01*
G01X311699Y-3535802D01*
G37*
G36*
G01X1191255Y-3100774D02*
G01X1111255Y-3100774D01*
G01X1106254Y-3105775D01*
G01X1106254Y-3128572D01*
G01X1143254Y-3128572D01*
G01X1143254Y-3161572D01*
G01X1106254Y-3161572D01*
G01X1106254Y-3185775D01*
G01X1111255Y-3190774D01*
G01X1191255Y-3190774D01*
G01X1196254Y-3185775D01*
G01X1196254Y-3105775D01*
G01X1191255Y-3100774D01*
G37*
G36*
G01X952251Y-3190771D02*
G01X1032251Y-3190771D01*
G01X1037252Y-3185770D01*
G01X1037252Y-3162974D01*
G01X1000252Y-3162974D01*
G01X1000252Y-3129974D01*
G01X1037252Y-3129974D01*
G01X1037252Y-3105770D01*
G01X1032251Y-3100772D01*
G01X952251Y-3100772D01*
G01X947252Y-3105770D01*
G01X947252Y-3185770D01*
G01X952251Y-3190771D01*
G37*
G36*
G01X1191255Y-2587879D02*
G01X1111255Y-2587879D01*
G01X1106254Y-2592880D01*
G01X1106254Y-2615677D01*
G01X1143254Y-2615677D01*
G01X1143254Y-2648676D01*
G01X1106254Y-2648676D01*
G01X1106254Y-2672880D01*
G01X1111255Y-2677879D01*
G01X1191255Y-2677879D01*
G01X1196254Y-2672880D01*
G01X1196254Y-2592880D01*
G01X1191255Y-2587879D01*
G37*
G36*
G01X952251Y-2677876D02*
G01X1032251Y-2677876D01*
G01X1037252Y-2672875D01*
G01X1037252Y-2650079D01*
G01X1000252Y-2650079D01*
G01X1000252Y-2617079D01*
G01X1037252Y-2617079D01*
G01X1037252Y-2592875D01*
G01X1032251Y-2587876D01*
G01X952251Y-2587876D01*
G01X947252Y-2592875D01*
G01X947252Y-2672875D01*
G01X952251Y-2677876D01*
G37*
G36*
G01X317256Y-3127919D02*
G02X317256Y-3247923I0J-60002D01*
G01X257264Y-3247923D01*
G02X257264Y-3127919I0J60002D01*
G01X317256Y-3127919D01*
G37*
G36*
G01X317256Y-2263915D02*
G02X317256Y-2383912I-390J-59999D01*
G01X257264Y-2383912D01*
G02X257264Y-2263915I390J59999D01*
G01X317256Y-2263915D01*
G37*
G36*
G01X755269Y-3127919D02*
G02X755269Y-3247923I0J-60002D01*
G01X655269Y-3247923D01*
G02X655269Y-3127919I0J60002D01*
G01X755269Y-3127919D01*
G37*
G36*
G01X755269Y-2263915D02*
G02X755269Y-2383912I-390J-59999D01*
G01X655269Y-2383912D01*
G02X655269Y-2263915I390J59999D01*
G01X755269Y-2263915D01*
G37*
G36*
G01X844525Y-2915910D02*
G01X844525Y-2945912D01*
G01X714517Y-2945912D01*
G01X714517Y-2915910D01*
G01X844525Y-2915910D01*
G37*
G36*
G01X844525Y-2865902D02*
G01X844525Y-2895905D01*
G01X714517Y-2895905D01*
G01X714517Y-2865902D01*
G01X844525Y-2865902D01*
G37*
G36*
G01X844525Y-2815907D02*
G01X844525Y-2845910D01*
G01X714517Y-2845910D01*
G01X714517Y-2815907D01*
G01X844525Y-2815907D01*
G37*
G36*
G01X844525Y-2765895D02*
G01X844525Y-2795897D01*
G01X714517Y-2795897D01*
G01X714517Y-2765895D01*
G01X844525Y-2765895D01*
G37*
G36*
G01X844525Y-2715913D02*
G01X844525Y-2745910D01*
G01X714517Y-2745910D01*
G01X714517Y-2715913D01*
G01X844525Y-2715913D01*
G37*
G36*
G01X844525Y-2665900D02*
G01X844525Y-2695903D01*
G01X714517Y-2695903D01*
G01X714517Y-2665900D01*
G01X844525Y-2665900D01*
G37*
G36*
G01X844525Y-2615910D02*
G01X844525Y-2645908D01*
G01X714517Y-2645908D01*
G01X714517Y-2615910D01*
G01X844525Y-2615910D01*
G37*
G36*
G01X844525Y-2565900D02*
G01X844525Y-2595895D01*
G01X714517Y-2595895D01*
G01X714517Y-2565900D01*
G01X844525Y-2565900D01*
G37*
G36*
G01X844525Y-2965910D02*
G01X844525Y-3025910D01*
G01X714517Y-3025910D01*
G01X714517Y-2965910D01*
G01X844525Y-2965910D01*
G37*
G36*
G01X844525Y-3045889D02*
G01X844525Y-3105894D01*
G01X714517Y-3105894D01*
G01X714517Y-3045889D01*
G01X844525Y-3045889D01*
G37*
G36*
G01X844525Y-2485895D02*
G01X844525Y-2545895D01*
G01X714517Y-2545895D01*
G01X714517Y-2485895D01*
G01X844525Y-2485895D01*
G37*
G36*
G01X844525Y-2405921D02*
G01X844525Y-2465916D01*
G01X714517Y-2465916D01*
G01X714517Y-2405921D01*
G01X844525Y-2405921D01*
G37*
G36*
G01X2684902Y-564601D02*
G01X2604902Y-564601D01*
G01X2599901Y-569603D01*
G01X2599901Y-592399D01*
G01X2636901Y-592399D01*
G01X2636901Y-625399D01*
G01X2599901Y-625399D01*
G01X2599901Y-649602D01*
G01X2604902Y-654601D01*
G01X2684902Y-654601D01*
G01X2689901Y-649602D01*
G01X2689901Y-569603D01*
G01X2684902Y-564601D01*
G37*
G36*
G01X2445898Y-654599D02*
G01X2525898Y-654599D01*
G01X2530899Y-649597D01*
G01X2530899Y-626801D01*
G01X2493899Y-626801D01*
G01X2493899Y-593801D01*
G01X2530899Y-593801D01*
G01X2530899Y-569598D01*
G01X2525898Y-564599D01*
G01X2445898Y-564599D01*
G01X2440899Y-569598D01*
G01X2440899Y-649597D01*
G01X2445898Y-654599D01*
G37*
G36*
G01X614802Y-1529801D02*
G01X534802Y-1529801D01*
G01X529801Y-1534803D01*
G01X529801Y-1557599D01*
G01X566801Y-1557599D01*
G01X566801Y-1590599D01*
G01X529801Y-1590599D01*
G01X529801Y-1614802D01*
G01X534802Y-1619801D01*
G01X614802Y-1619801D01*
G01X619801Y-1614802D01*
G01X619801Y-1534803D01*
G01X614802Y-1529801D01*
G37*
G36*
G01X375798Y-1619799D02*
G01X455798Y-1619799D01*
G01X460799Y-1614797D01*
G01X460799Y-1592001D01*
G01X423799Y-1592001D01*
G01X423799Y-1559001D01*
G01X460799Y-1559001D01*
G01X460799Y-1534798D01*
G01X455798Y-1529799D01*
G01X375798Y-1529799D01*
G01X370799Y-1534798D01*
G01X370799Y-1614797D01*
G01X375798Y-1619799D01*
G37*
G36*
G01X375798Y-1772199D02*
G01X455798Y-1772199D01*
G01X460799Y-1767197D01*
G01X460799Y-1744401D01*
G01X423799Y-1744401D01*
G01X423799Y-1711401D01*
G01X460799Y-1711401D01*
G01X460799Y-1687198D01*
G01X455798Y-1682199D01*
G01X375798Y-1682199D01*
G01X370799Y-1687198D01*
G01X370799Y-1767197D01*
G01X375798Y-1772199D01*
G37*
G36*
G01X614802Y-1682201D02*
G01X534802Y-1682201D01*
G01X529801Y-1687203D01*
G01X529801Y-1709999D01*
G01X566801Y-1709999D01*
G01X566801Y-1742999D01*
G01X529801Y-1742999D01*
G01X529801Y-1767202D01*
G01X534802Y-1772201D01*
G01X614802Y-1772201D01*
G01X619801Y-1767202D01*
G01X619801Y-1687203D01*
G01X614802Y-1682201D01*
G37*
G36*
G01X602102Y-526501D02*
G01X522102Y-526501D01*
G01X517101Y-531503D01*
G01X517101Y-554299D01*
G01X554101Y-554299D01*
G01X554101Y-587299D01*
G01X517101Y-587299D01*
G01X517101Y-611502D01*
G01X522102Y-616501D01*
G01X602102Y-616501D01*
G01X607101Y-611502D01*
G01X607101Y-531503D01*
G01X602102Y-526501D01*
G37*
G36*
G01X363098Y-616499D02*
G01X443098Y-616499D01*
G01X448099Y-611497D01*
G01X448099Y-588701D01*
G01X411099Y-588701D01*
G01X411099Y-555701D01*
G01X448099Y-555701D01*
G01X448099Y-531498D01*
G01X443098Y-526499D01*
G01X363098Y-526499D01*
G01X358099Y-531498D01*
G01X358099Y-611497D01*
G01X363098Y-616499D01*
G37*
G36*
G01X602102Y-678901D02*
G01X522102Y-678901D01*
G01X517101Y-683903D01*
G01X517101Y-706699D01*
G01X554101Y-706699D01*
G01X554101Y-739699D01*
G01X517101Y-739699D01*
G01X517101Y-763902D01*
G01X522102Y-768901D01*
G01X602102Y-768901D01*
G01X607101Y-763902D01*
G01X607101Y-683903D01*
G01X602102Y-678901D01*
G37*
G36*
G01X363098Y-768899D02*
G01X443098Y-768899D01*
G01X448099Y-763897D01*
G01X448099Y-741101D01*
G01X411099Y-741101D01*
G01X411099Y-708101D01*
G01X448099Y-708101D01*
G01X448099Y-683898D01*
G01X443098Y-678899D01*
G01X363098Y-678899D01*
G01X358099Y-683898D01*
G01X358099Y-763897D01*
G01X363098Y-768899D01*
G37*
G36*
G01X603184Y-833887D02*
G01X523184Y-833887D01*
G01X518183Y-838888D01*
G01X518183Y-861685D01*
G01X555183Y-861685D01*
G01X555183Y-894685D01*
G01X518183Y-894685D01*
G01X518183Y-918888D01*
G01X523184Y-923887D01*
G01X603184Y-923887D01*
G01X608183Y-918888D01*
G01X608183Y-838888D01*
G01X603184Y-833887D01*
G37*
G36*
G01X364180Y-923884D02*
G01X444180Y-923884D01*
G01X449181Y-918883D01*
G01X449181Y-896087D01*
G01X412181Y-896087D01*
G01X412181Y-863087D01*
G01X449181Y-863087D01*
G01X449181Y-838883D01*
G01X444180Y-833885D01*
G01X364180Y-833885D01*
G01X359181Y-838883D01*
G01X359181Y-918883D01*
G01X364180Y-923884D01*
G37*
G36*
G01X614802Y-2012401D02*
G01X534802Y-2012401D01*
G01X529801Y-2017403D01*
G01X529801Y-2040199D01*
G01X566801Y-2040199D01*
G01X566801Y-2073199D01*
G01X529801Y-2073199D01*
G01X529801Y-2097402D01*
G01X534802Y-2102401D01*
G01X614802Y-2102401D01*
G01X619801Y-2097402D01*
G01X619801Y-2017403D01*
G01X614802Y-2012401D01*
G37*
G36*
G01X375798Y-2102399D02*
G01X455798Y-2102399D01*
G01X460799Y-2097397D01*
G01X460799Y-2074601D01*
G01X423799Y-2074601D01*
G01X423799Y-2041601D01*
G01X460799Y-2041601D01*
G01X460799Y-2017398D01*
G01X455798Y-2012399D01*
G01X375798Y-2012399D01*
G01X370799Y-2017398D01*
G01X370799Y-2097397D01*
G01X375798Y-2102399D01*
G37*

G04 Pad Start*
G54D10*
G01X1442725Y-2936136D03*
G01X1582730Y-2936136D03*
G54D11*
G01X101262Y-3310953D03*
G01X101948Y-3470846D03*
G54D12*
G01X1354005Y-1954403D03*
G01X1354005Y-2184400D03*
G01X1354005Y-2414397D03*
G54D13*
G01X1947997Y-2184400D03*
G54D14*
G01X1209044Y-2966671D03*
G01X1209044Y-2871675D03*
G01X1209044Y-2776679D03*
G01X979225Y-2776679D03*
G01X979225Y-2871675D03*
G01X979225Y-2966671D03*
G54D16*
G01X975624Y-3329046D03*
G01X1285606Y-3329046D03*
G54D17*
G01X955624Y-3496478D03*
G54D18*
G01X1105611Y-3496478D03*
G54D10*
G01X423748Y-1218659D03*
G01X563753Y-1218659D03*
G54D19*
G01X565302Y-1409700D03*
G01X425298Y-1409700D03*
G54D20*
G01X857809Y-704901D03*
G01X857809Y-784911D03*
G01X857809Y-864895D03*
G01X857809Y-944905D03*
G01X857809Y-1024890D03*
G01X857809Y-1104900D03*
G01X857809Y-1184910D03*
G01X857809Y-1264895D03*
G01X857809Y-1344905D03*
G01X857809Y-1424889D03*
G01X857809Y-1504899D03*
G54D21*
G01X967791Y-1594891D03*
G01X1047801Y-1594891D03*
G01X1127811Y-1594891D03*
G01X1207795Y-1594891D03*
G01X1287805Y-1594891D03*
G01X1367790Y-1594891D03*
G01X1447800Y-1594891D03*
G01X1527810Y-1594891D03*
G01X1607795Y-1594891D03*
G01X1687805Y-1594891D03*
G01X1767789Y-1594891D03*
G01X1847799Y-1594891D03*
G01X1927809Y-1594891D03*
G54D22*
G01X2037791Y-1504899D03*
G01X2037791Y-1424889D03*
G01X2037791Y-1344905D03*
G01X2037791Y-1264895D03*
G01X2037791Y-1184910D03*
G01X2037791Y-1104900D03*
G01X2037791Y-1024890D03*
G01X2037791Y-944905D03*
G01X2037791Y-864895D03*
G01X2037791Y-784911D03*
G01X2037791Y-704901D03*
G54D23*
G01X1927809Y-614909D03*
G01X1847799Y-614909D03*
G01X1767789Y-614909D03*
G01X1687805Y-614909D03*
G01X1607795Y-614909D03*
G01X1527810Y-614909D03*
G01X1447800Y-614909D03*
G01X1367790Y-614909D03*
G01X1287805Y-614909D03*
G01X1207795Y-614909D03*
G01X1127811Y-614909D03*
G01X1047801Y-614909D03*
G01X967791Y-614909D03*
G54D24*
G01X2042795Y-609905D03*
G01X2042795Y-1599895D03*
G01X852805Y-1599895D03*
G01X852805Y-609905D03*
G54D25*
G01X1250287Y-907405D03*
G54D26*
G01X1645285Y-1302410D03*
G01X1447800Y-1302410D03*
G01X1250290Y-1302410D03*
G01X1250290Y-1104900D03*
G01X1447800Y-907415D03*
G01X1645285Y-907415D03*
G01X1645285Y-1104900D03*
G01X1447800Y-1104900D03*
G54D10*
G01X1442725Y-2758336D03*
G01X1582730Y-2758336D03*
G54D19*
G01X565302Y-1892300D03*
G01X425298Y-1892300D03*
G54D10*
G01X412598Y-1041400D03*
G01X552602Y-1041400D03*
G54D27*
G01X839800Y-1873504D03*
G01X839800Y-2063496D03*
G01X1039800Y-1968500D03*
G04 Pad End*

M02*

