G04 Layer: BottomLayer*
G04 EasyEDA Pro v2.2.32.3, 2024-12-05 12:24:41*
G04 Gerber Generator version 0.3*
G04 Scale: 100 percent, Rotated: No, Reflected: No*
G04 Dimensions in millimeters*
G04 Leading zeros omitted, absolute positions, 3 integers and 5 decimals*
%FSLAX35Y35*%
%MOMM*%
%ADD10C,0.2032*%
%ADD11C,0.254*%
%ADD12R,0.9X1.2*%
%ADD13O,0.9X1.2*%
%ADD14O,1.8X1.2*%
%ADD15O,2.2000X1.2*%
%ADD16O,2.2X1.2*%
%ADD17R,2.0X1.6*%
%ADD18R,2.0X1.6*%
%ADD19R,0.29997X1.3*%
%ADD20R,1.7X1.7*%
%ADD21C,1.7*%
%ADD22R,1.2954X1.2954*%
%ADD23C,1.2954*%
%ADD24R,0.997X1.54501*%
%ADD25C,0.61*%
G75*


G04 Copper Start*
G36*
G01X48099Y-1153292D02*
G01X35814Y-1165577D01*
G01X35814Y-447676D01*
G01X372715Y-447676D01*
G01X313163Y-507227D01*
G01X310373Y-507550D01*
G03X268430Y-620570I4948J-66129D01*
G03X381450Y-578627I46891J46891D01*
G01X381773Y-575837D01*
G01X439195Y-518414D01*
G01X1029172Y-518414D01*
G02X1069086Y-542289I-67599J-158313D01*
G01X1069086Y-682809D01*
G02X1025694Y-744476I-198949J93890D01*
G01X997788Y-772382D01*
G01X996416Y-773553D01*
G01X995169Y-774384D01*
G01X987824Y-778169D01*
G03X949725Y-840486I28176J-60031D01*
G01X693163Y-840486D01*
G01X690960Y-838739D01*
G03X581386Y-889000I-43260J-50261D01*
G03X690960Y-939261I66314J0D01*
G01X693163Y-937514D01*
G01X932405Y-937514D01*
G01X949548Y-954658D01*
G01X949871Y-957452D01*
G03X973375Y-1003300I66129J4952D01*
G01X972740Y-1003839D01*
G01X970537Y-1005586D01*
G01X876300Y-1005586D01*
G03X841995Y-1019795I0J-48514D01*
G01X782916Y-1078874D01*
G03X747192Y-1045588I-35725J-2528D01*
G01X547192Y-1045588D01*
G03X511378Y-1081402I0J-35814D01*
G01X511378Y-1241402D01*
G03X547192Y-1277216I35814J0D01*
G01X707625Y-1277216D01*
G01X407755Y-1577086D01*
G01X290992Y-1577086D01*
G01X287690Y-1576921D01*
G01X286424Y-1576713D01*
G01X286038Y-1576527D01*
G01X285309Y-1575776D01*
G01X284322Y-1574564D01*
G01X280110Y-1568360D01*
G01X274956Y-1559931D01*
G01X274576Y-1559324D01*
G01X268318Y-1549536D01*
G03X266838Y-1547395I-30174J-19292D01*
G01X264814Y-1544686D01*
G03X100714Y-1510673I-99714J-68214D01*
G01X100714Y-1461127D01*
G03X285914Y-1358900I64386J102227D01*
G03X100714Y-1256673I-120814J0D01*
G01X100714Y-1237895D01*
G01X116708Y-1221901D01*
G01X119637Y-1219219D01*
G01X120260Y-1218864D01*
G01X127676Y-1220520D01*
G01X137392Y-1222759D01*
G03X140141Y-1223280I8042J34899D01*
G01X143992Y-1223856D01*
G03X150512Y-1224830I21108J118956D01*
G01X151401Y-1224963D01*
G03X154710Y-1225301I5293J35421D01*
G01X156097Y-1225378D01*
G03X160723Y-1225635I9003J120478D01*
G01X161015Y-1225651D01*
G01X163461Y-1225703D01*
G03X167591Y-1225688I1639J120803D01*
G03X171718Y-1225532I-2491J120788D01*
G03X250528Y-1019472I-6725J120673D01*
G03X44468Y-1098282I-85388J-85535D01*
G03X44297Y-1106539I120632J-6618D01*
G01X44349Y-1108985D01*
G01X44365Y-1109277D01*
G03X44622Y-1113903I120735J4377D01*
G01X44699Y-1115290D01*
G03X45037Y-1118599I35759J1984D01*
G01X45170Y-1119488D01*
G03X46144Y-1126008I119930J14588D01*
G01X46720Y-1129859D01*
G03X47241Y-1132608I35421J5293D01*
G01X49480Y-1142324D01*
G01X51153Y-1149861D01*
G01X50781Y-1150363D01*
G01X48099Y-1153292D01*
G37*
%LPC*%
G36*
G01X44286Y-935900D02*
G03X80100Y-971714I35814J0D01*
G01X250100Y-971714D01*
G03X285914Y-935900I0J35814D01*
G01X285914Y-765900D01*
G03X250100Y-730086I-35814J0D01*
G01X80100Y-730086D01*
G03X44286Y-765900I0J-35814D01*
G01X44286Y-935900D01*
G37*
%LPD*%
G36*
G01X2700000Y-3564186D02*
G01X553974Y-3564186D01*
G03X618515Y-3498827I-58674J122486D01*
G03X638000Y-3502912I19485J44429D01*
G01X1684478Y-3502907D01*
G01X1684478Y-3514392D01*
G03X1720292Y-3550206I35814J0D01*
G01X1810292Y-3550206D01*
G03X1841389Y-3532159I0J35814D01*
G03X1955792Y-3519379I50904J62767D01*
G03X2082792Y-3519379I63500J49986D01*
G03X2209792Y-3519379I63500J49986D01*
G03X2354106Y-3469392I63500J49986D01*
G01X2354106Y-3439392D01*
G03X2209792Y-3389406I-80814J0D01*
G03X2188645Y-3370565I-63500J-49986D01*
G01X2188068Y-3370143D01*
G01X2187272Y-3369070D01*
G01X2186259Y-3367310D01*
G01X2185368Y-3365291D01*
G01X2184800Y-3363505D01*
G01X2184615Y-3362542D01*
G01X2184557Y-3361365D01*
G01X2194103Y-3093752D01*
G01X2287465Y-3000390D01*
G03X2301675Y-2966085I-34305J34305D01*
G01X2301675Y-1221335D01*
G01X2351658Y-1171352D01*
G01X2354452Y-1171029D01*
G03X2412619Y-1125236I-4952J66129D01*
G03X2392125Y-1054100I-63119J20336D01*
G03X2370504Y-940400I-42625J50800D01*
G03X2284904Y-1018297I-21004J-62900D01*
G01X2256795Y-1046405D01*
G03X2243408Y-1071817I34305J-34305D01*
G03X2234631Y-1099648I39737J-27831D01*
G01X2234631Y-1100814D01*
G01X2183256Y-1152189D01*
G03X2169047Y-1186493I34305J-34305D01*
G01X2169047Y-2931244D01*
G01X2063696Y-3036595D01*
G03X2049486Y-3070900I34305J-34305D01*
G01X2049486Y-3241305D01*
G01X1984988Y-3305803D01*
G03X1970778Y-3340108I34305J-34305D01*
G01X1970778Y-3367905D01*
G01X1970694Y-3368917D01*
G01X1970564Y-3369473D01*
G01X1970023Y-3370961D01*
G01X1969018Y-3373053D01*
G01X1967602Y-3375453D01*
G01X1965890Y-3377907D01*
G01X1964046Y-3380188D01*
G01X1961738Y-3382661D01*
G03X1955792Y-3389406I57554J-56731D01*
G03X1841389Y-3376625I-63500J-49986D01*
G03X1810292Y-3358578I-31096J-17767D01*
G01X1720292Y-3358578D01*
G03X1684478Y-3394392I0J-35814D01*
G01X1684478Y-3405879D01*
G01X686514Y-3405884D01*
G01X686514Y-3382592D01*
G03X672305Y-3348287I-48514J0D01*
G01X588713Y-3264695D01*
G03X554408Y-3250486I-34305J-34305D01*
G01X436192Y-3250486D01*
G03X401887Y-3264695I0J-48514D01*
G01X318295Y-3348287D01*
G03X304086Y-3382592I34305J-34305D01*
G01X304086Y-3405886D01*
G01X286725Y-3405886D01*
G03X254000Y-3393186I-32725J-35814D01*
G01X248695Y-3393186D01*
G01X100714Y-3245205D01*
G01X100714Y-1969127D01*
G03X285914Y-1866900I64386J102227D01*
G03X100714Y-1764673I-120814J0D01*
G01X100714Y-1715089D01*
G03X231325Y-1713946I64415J102233D01*
G03X259327Y-1688512I-66225J101046D01*
G01X265206Y-1682461D01*
G01X270906Y-1677148D01*
G01X274880Y-1674114D01*
G01X427851Y-1674114D01*
G03X462155Y-1659905I0J48514D01*
G01X767851Y-1354208D01*
G03X766356Y-1364449I34319J-10240D01*
G01X766356Y-1494448D01*
G03X802170Y-1530262I35814J0D01*
G01X832168Y-1530262D01*
G03X842124Y-1528850I0J35814D01*
G03X852081Y-1530262I9957J34402D01*
G01X868604Y-1530262D01*
G01X868604Y-1615487D01*
G01X803895Y-1680195D01*
G03X789686Y-1714500I34305J-34305D01*
G01X789686Y-1993900D01*
G03X803895Y-2028205I48514J0D01*
G01X905495Y-2129805D01*
G03X912265Y-2135443I34305J34305D01*
G03X1028375Y-2115661I52935J39943D01*
G03X945187Y-2032278I-63175J20161D01*
G01X886714Y-1973805D01*
G01X886714Y-1760952D01*
G03X947552Y-1818729I65786J8352D01*
G01X950342Y-1819052D01*
G01X994395Y-1863105D01*
G03X1028700Y-1877314I34305J34305D01*
G01X1110237Y-1877314D01*
G01X1112440Y-1879061D01*
G03X1184383Y-1888590I43260J50261D01*
G03X1221975Y-1826514I-28683J59790D01*
G01X1270000Y-1826514D01*
G03X1304305Y-1812305I0J48514D01*
G01X1348358Y-1768252D01*
G01X1351148Y-1767929D01*
G03X1398798Y-1661414I-4948J66129D01*
G01X1435100Y-1661414D01*
G03X1469405Y-1647205I0J48514D01*
G01X1551803Y-1564806D01*
G01X1553337Y-1564299D01*
G01X1557056Y-1563418D01*
G03X1590675Y-1544746I-14006J64818D01*
G03X1668486Y-1557645I47625J46146D01*
G01X1668486Y-1590759D01*
G01X1060396Y-2198849D01*
G03X1046186Y-2233154I34305J-34305D01*
G01X1046186Y-2326905D01*
G01X1032892Y-2340198D01*
G01X1030098Y-2340521D01*
G03X975999Y-2436824I4952J-66129D01*
G03X1085737Y-2449409I59051J30174D01*
G03X1177501Y-2446879I44563J49109D01*
G03X1178814Y-2355090I-47201J46579D01*
G01X1178814Y-2267995D01*
G01X1786905Y-1659905D01*
G03X1801114Y-1625600I-34305J34305D01*
G01X1801114Y-1500242D01*
G03X1849252Y-1526629I53086J39742D01*
G01X1852042Y-1526952D01*
G01X2046986Y-1721895D01*
G01X2046986Y-2530542D01*
G03X1976040Y-2540539I-27686J-60258D01*
G01X1973837Y-2542286D01*
G01X1886963Y-2542286D01*
G01X1884760Y-2540539D01*
G03X1775186Y-2590800I-43260J-50261D01*
G03X1884760Y-2641061I66314J0D01*
G01X1886963Y-2639314D01*
G01X1973837Y-2639314D01*
G01X1976040Y-2641061D01*
G03X2046986Y-2651058I43260J50261D01*
G01X2046986Y-2710437D01*
G01X2045239Y-2712640D01*
G03X2095500Y-2822214I50261J-43260D01*
G03X2145761Y-2712640I0J66314D01*
G01X2144014Y-2710437D01*
G01X2144014Y-1701800D01*
G03X2129805Y-1667495I-48514J0D01*
G01X1920652Y-1458342D01*
G01X1920329Y-1455552D01*
G03X1887837Y-1403350I-66129J-4948D01*
G03X1920285Y-1351703I-33637J57150D01*
G03X1896825Y-1295400I-66085J5503D01*
G03X1879356Y-1183242I-42625J50800D01*
G03X1788182Y-1250858I-25156J-61358D01*
G01X1774989Y-1264050D01*
G03X1754349Y-1276296I13665J-46550D01*
G01X1682696Y-1347949D01*
G03X1668486Y-1382254I34305J-34305D01*
G01X1668486Y-1439555D01*
G03X1643248Y-1432471I-30186J-59045D01*
G01X1640458Y-1432148D01*
G01X1609105Y-1400795D01*
G03X1574800Y-1386586I-34305J-34305D01*
G01X1511300Y-1386586D01*
G03X1476995Y-1400795I0J-48514D01*
G01X1431456Y-1446335D01*
G03X1418019Y-1472020I34305J-34305D01*
G01X1418019Y-1364449D01*
G03X1382205Y-1328635I-35814J0D01*
G01X1369314Y-1328635D01*
G01X1369314Y-1308100D01*
G03X1355105Y-1273795I-48514J0D01*
G01X1286494Y-1205185D01*
G03X1252190Y-1190976I-34305J-34305D01*
G01X1163063Y-1190976D01*
G01X1160860Y-1189229D01*
G03X1051286Y-1239490I-43260J-50261D01*
G03X1160860Y-1289751I66314J0D01*
G01X1163063Y-1288004D01*
G01X1232094Y-1288004D01*
G01X1272286Y-1328195D01*
G01X1272286Y-1328635D01*
G01X1252131Y-1328635D01*
G03X1242111Y-1330065I0J-35814D01*
G03X1232091Y-1328635I-10020J-34384D01*
G01X1202093Y-1328635D01*
G03X1192136Y-1330047I0J-35814D01*
G03X1182180Y-1328635I-9957J-34402D01*
G01X1152182Y-1328635D01*
G03X1142225Y-1330047I0J-35814D01*
G03X1132269Y-1328635I-9957J-34402D01*
G01X1102271Y-1328635D01*
G03X1092251Y-1330065I0J-35814D01*
G03X1082231Y-1328635I-10020J-34384D01*
G01X1052233Y-1328635D01*
G03X1042213Y-1330065I0J-35814D01*
G03X1032193Y-1328635I-10020J-34384D01*
G01X1013714Y-1328635D01*
G01X1013714Y-1220286D01*
G01X1151905Y-1082095D01*
G03X1166114Y-1047790I-34305J34305D01*
G01X1166114Y-520700D01*
G01X1166060Y-518414D01*
G01X2301942Y-518414D01*
G03X2343127Y-609612I60258J-27686D01*
G03X2427742Y-556193I19073J63512D01*
G01X2429088Y-556218D01*
G01X2528788Y-556218D01*
G03X2564602Y-520404I0J35814D01*
G01X2564602Y-365904D01*
G03X2528788Y-330090I-35814J0D01*
G01X2429088Y-330090D01*
G03X2423414Y-330542I0J-35814D01*
G01X2423414Y-232520D01*
G02X2432395Y-228710I15525J-24108D01*
G01X2528788Y-228710D01*
G03X2564602Y-192896I0J35814D01*
G01X2564602Y-38396D01*
G03X2564509Y-35814I-35814J0D01*
G01X2571371Y-35814D01*
G03X2571278Y-38396I35721J-2582D01*
G01X2571278Y-192896D01*
G03X2607092Y-228710I35814J0D01*
G01X2706792Y-228710D01*
G03X2742606Y-192896I0J35814D01*
G01X2742606Y-51994D01*
G02X2764186Y-100000I-42606J-48006D01*
G01X2764186Y-3500000D01*
G02X2700000Y-3564186I-64186J0D01*
G37*
%LPC*%
G36*
G01X317274Y-2228083D02*
G01X257274Y-2228083D01*
G03X257274Y-2419711I0J-95814D01*
G01X317274Y-2419711D01*
G03X317274Y-2228083I0J95814D01*
G37*
G36*
G01X317274Y-3092089D02*
G01X257274Y-3092089D01*
G03X257274Y-3283717I0J-95814D01*
G01X317274Y-3283717D01*
G03X317274Y-3092089I0J95814D01*
G37*
G36*
G01X755282Y-2419711D02*
G03X755282Y-2228083I0J95814D01*
G01X655282Y-2228083D01*
G03X613167Y-2409959I0J-95814D01*
G03X648031Y-2537343I42102J-56940D01*
G03X708071Y-2419711I7239J70444D01*
G01X755282Y-2419711D01*
G37*
G36*
G01X655282Y-3283717D02*
G01X755282Y-3283717D01*
G03X755282Y-3092089I0J95814D01*
G01X708071Y-3092089D01*
G03X648031Y-2974457I-52802J47188D01*
G03X613167Y-3101841I7239J-70444D01*
G03X655282Y-3283717I42115J-86062D01*
G37*
G36*
G01X1034037Y-2825193D02*
G01X1036240Y-2826940D01*
G03X1145814Y-2776679I43260J50261D01*
G03X1036240Y-2726418I-66314J0D01*
G01X1034037Y-2728165D01*
G01X700868Y-2728165D01*
G01X699375Y-2727420D01*
G01X696098Y-2725414D01*
G03X594724Y-2790477I-35698J-55886D01*
G03X710050Y-2825259I65676J9177D01*
G01X1034037Y-2825193D01*
G37*
G36*
G01X2304037Y-772414D02*
G01X2306240Y-774161D01*
G03X2415814Y-723900I43260J50261D01*
G03X2306240Y-673639I-66314J0D01*
G01X2304037Y-675386D01*
G01X1889224Y-675386D01*
G01X1885618Y-675190D01*
G01X1880897Y-674614D01*
G01X1876254Y-673798D01*
G01X1872646Y-672903D01*
G03X1810940Y-686339I-18446J-63697D01*
G01X1808737Y-688086D01*
G01X1493263Y-688086D01*
G01X1491060Y-686339D01*
G03X1381486Y-736600I-43260J-50261D01*
G03X1491060Y-786861I66314J0D01*
G01X1493263Y-785114D01*
G01X1808737Y-785114D01*
G01X1810940Y-786861D01*
G03X1910011Y-772414I43260J50261D01*
G01X2304037Y-772414D01*
G37*
G36*
G01X1673022Y-1081352D02*
G03X1637208Y-1045538I-35814J0D01*
G01X1437208Y-1045538D01*
G03X1401394Y-1081352I0J-35814D01*
G01X1401394Y-1241351D01*
G03X1437208Y-1277165I35814J0D01*
G01X1637208Y-1277165D01*
G03X1673022Y-1241351I0J35814D01*
G01X1673022Y-1081352D01*
G37*
G36*
G01X2425700Y-2388616D02*
G03X2425700Y-2589784I0J-100584D01*
G03X2425700Y-2388616I0J100584D01*
G37*
G36*
G01X2425700Y-2642616D02*
G03X2425700Y-2843784I0J-100584D01*
G03X2425700Y-2642616I0J100584D01*
G37*
G36*
G01X2325116Y-3315970D02*
G03X2360930Y-3351784I35814J0D01*
G01X2490470Y-3351784D01*
G03X2526284Y-3315970I0J35814D01*
G01X2526284Y-3186430D01*
G03X2490470Y-3150616I-35814J0D01*
G01X2360930Y-3150616D01*
G03X2325116Y-3186430I0J-35814D01*
G01X2325116Y-3315970D01*
G37*
G36*
G01X2425700Y-2896616D02*
G03X2425700Y-3097784I0J-100584D01*
G03X2425700Y-2896616I0J100584D01*
G37*
G36*
G01X2520786Y-935900D02*
G03X2556600Y-971714I35814J0D01*
G01X2726600Y-971714D01*
G03X2762414Y-935900I0J35814D01*
G01X2762414Y-765900D01*
G03X2726600Y-730086I-35814J0D01*
G01X2556600Y-730086D01*
G03X2520786Y-765900I0J-35814D01*
G01X2520786Y-935900D01*
G37*
G36*
G01X2641600Y-1492086D02*
G03X2641600Y-1733714I0J-120814D01*
G03X2641600Y-1492086I0J120814D01*
G37*
G36*
G01X2641600Y-1238086D02*
G03X2641600Y-1479714I0J-120814D01*
G03X2641600Y-1238086I0J120814D01*
G37*
G36*
G01X2641600Y-984086D02*
G03X2641600Y-1225714I0J-120814D01*
G03X2641600Y-984086I0J120814D01*
G37*
G36*
G01X2641600Y-1746086D02*
G03X2641600Y-1987714I0J-120814D01*
G03X2641600Y-1746086I0J120814D01*
G37*
G36*
G01X2607092Y-330090D02*
G03X2571278Y-365904I0J-35814D01*
G01X2571278Y-520404D01*
G03X2607092Y-556218I35814J0D01*
G01X2706792Y-556218D01*
G03X2742606Y-520404I0J35814D01*
G01X2742606Y-365904D01*
G03X2706792Y-330090I-35814J0D01*
G01X2607092Y-330090D01*
G37*
%LPD*%
G36*
G01X849006Y-1150003D02*
G01X896395Y-1102614D01*
G01X970537Y-1102614D01*
G01X972740Y-1104361D01*
G03X984387Y-1112394I43260J50261D01*
G01X930895Y-1165886D01*
G03X916686Y-1200190I34305J-34305D01*
G01X916686Y-1328635D01*
G01X902119Y-1328635D01*
G03X892099Y-1330065I0J-35814D01*
G03X882079Y-1328635I-10020J-34384D01*
G01X852081Y-1328635D01*
G03X842124Y-1330047I0J-35814D01*
G03X832168Y-1328635I-9957J-34402D01*
G01X802170Y-1328635D01*
G03X791930Y-1330130I0J-35814D01*
G01X834797Y-1287263D01*
G03X849006Y-1252959I-34305J34305D01*
G01X849006Y-1150003D01*
G37*
G54D10*
G01X48099Y-1153292D02*
G01X35814Y-1165577D01*
G01X35814Y-447676D01*
G01X372715Y-447676D01*
G01X313163Y-507227D01*
G01X310373Y-507550D01*
G03X268430Y-620570I4948J-66129D01*
G03X381450Y-578627I46891J46891D01*
G01X381773Y-575837D01*
G01X439195Y-518414D01*
G01X1029172Y-518414D01*
G02X1069086Y-542289I-67599J-158313D01*
G01X1069086Y-682809D01*
G02X1025694Y-744476I-198949J93890D01*
G01X997788Y-772382D01*
G01X996416Y-773553D01*
G01X995169Y-774384D01*
G01X987824Y-778169D01*
G03X949725Y-840486I28176J-60031D01*
G01X693163Y-840486D01*
G01X690960Y-838739D01*
G03X581386Y-889000I-43260J-50261D01*
G03X690960Y-939261I66314J0D01*
G01X693163Y-937514D01*
G01X932405Y-937514D01*
G01X949548Y-954658D01*
G01X949871Y-957452D01*
G03X973375Y-1003300I66129J4952D01*
G01X972740Y-1003839D01*
G01X970537Y-1005586D01*
G01X876300Y-1005586D01*
G03X841995Y-1019795I0J-48514D01*
G01X782916Y-1078874D01*
G03X747192Y-1045588I-35725J-2528D01*
G01X547192Y-1045588D01*
G03X511378Y-1081402I0J-35814D01*
G01X511378Y-1241402D01*
G03X547192Y-1277216I35814J0D01*
G01X707625Y-1277216D01*
G01X407755Y-1577086D01*
G01X290992Y-1577086D01*
G01X287690Y-1576921D01*
G01X286424Y-1576713D01*
G01X286038Y-1576527D01*
G01X285309Y-1575776D01*
G01X284322Y-1574564D01*
G01X280110Y-1568360D01*
G01X274956Y-1559931D01*
G01X274576Y-1559324D01*
G01X268318Y-1549536D01*
G03X266838Y-1547395I-30174J-19292D01*
G01X264814Y-1544686D01*
G03X100714Y-1510673I-99714J-68214D01*
G01X100714Y-1461127D01*
G03X285914Y-1358900I64386J102227D01*
G03X100714Y-1256673I-120814J0D01*
G01X100714Y-1237895D01*
G01X116708Y-1221901D01*
G01X119637Y-1219219D01*
G01X120260Y-1218864D01*
G01X127676Y-1220520D01*
G01X137392Y-1222759D01*
G03X140141Y-1223280I8042J34899D01*
G01X143992Y-1223856D01*
G03X150512Y-1224830I21108J118956D01*
G01X151401Y-1224963D01*
G03X154710Y-1225301I5293J35421D01*
G01X156097Y-1225378D01*
G03X160723Y-1225635I9003J120478D01*
G01X161015Y-1225651D01*
G01X163461Y-1225703D01*
G03X167591Y-1225688I1639J120803D01*
G03X171718Y-1225532I-2491J120788D01*
G03X250528Y-1019472I-6725J120673D01*
G03X44468Y-1098282I-85388J-85535D01*
G03X44297Y-1106539I120632J-6618D01*
G01X44349Y-1108985D01*
G01X44365Y-1109277D01*
G03X44622Y-1113903I120735J4377D01*
G01X44699Y-1115290D01*
G03X45037Y-1118599I35759J1984D01*
G01X45170Y-1119488D01*
G03X46144Y-1126008I119930J14588D01*
G01X46720Y-1129859D01*
G03X47241Y-1132608I35421J5293D01*
G01X49480Y-1142324D01*
G01X51153Y-1149861D01*
G01X50781Y-1150363D01*
G01X48099Y-1153292D01*
G01X44286Y-935900D02*
G03X80100Y-971714I35814J0D01*
G01X250100Y-971714D01*
G03X285914Y-935900I0J35814D01*
G01X285914Y-765900D01*
G03X250100Y-730086I-35814J0D01*
G01X80100Y-730086D01*
G03X44286Y-765900I0J-35814D01*
G01X44286Y-935900D01*
G01X2700000Y-3564186D02*
G01X553974Y-3564186D01*
G03X618515Y-3498827I-58674J122486D01*
G03X638000Y-3502912I19485J44429D01*
G01X1684478Y-3502907D01*
G01X1684478Y-3514392D01*
G03X1720292Y-3550206I35814J0D01*
G01X1810292Y-3550206D01*
G03X1841389Y-3532159I0J35814D01*
G03X1955792Y-3519379I50904J62767D01*
G03X2082792Y-3519379I63500J49986D01*
G03X2209792Y-3519379I63500J49986D01*
G03X2354106Y-3469392I63500J49986D01*
G01X2354106Y-3439392D01*
G03X2209792Y-3389406I-80814J0D01*
G03X2188645Y-3370565I-63500J-49986D01*
G01X2188068Y-3370143D01*
G01X2187272Y-3369070D01*
G01X2186259Y-3367310D01*
G01X2185368Y-3365291D01*
G01X2184800Y-3363505D01*
G01X2184615Y-3362542D01*
G01X2184557Y-3361365D01*
G01X2194103Y-3093752D01*
G01X2287465Y-3000390D01*
G03X2301675Y-2966085I-34305J34305D01*
G01X2301675Y-1221335D01*
G01X2351658Y-1171352D01*
G01X2354452Y-1171029D01*
G03X2412619Y-1125236I-4952J66129D01*
G03X2392125Y-1054100I-63119J20336D01*
G03X2370504Y-940400I-42625J50800D01*
G03X2284904Y-1018297I-21004J-62900D01*
G01X2256795Y-1046405D01*
G03X2243408Y-1071817I34305J-34305D01*
G03X2234631Y-1099648I39737J-27831D01*
G01X2234631Y-1100814D01*
G01X2183256Y-1152189D01*
G03X2169047Y-1186493I34305J-34305D01*
G01X2169047Y-2931244D01*
G01X2063696Y-3036595D01*
G03X2049486Y-3070900I34305J-34305D01*
G01X2049486Y-3241305D01*
G01X1984988Y-3305803D01*
G03X1970778Y-3340108I34305J-34305D01*
G01X1970778Y-3367905D01*
G01X1970694Y-3368917D01*
G01X1970564Y-3369473D01*
G01X1970023Y-3370961D01*
G01X1969018Y-3373053D01*
G01X1967602Y-3375453D01*
G01X1965890Y-3377907D01*
G01X1964046Y-3380188D01*
G01X1961738Y-3382661D01*
G03X1955792Y-3389406I57554J-56731D01*
G03X1841389Y-3376625I-63500J-49986D01*
G03X1810292Y-3358578I-31096J-17767D01*
G01X1720292Y-3358578D01*
G03X1684478Y-3394392I0J-35814D01*
G01X1684478Y-3405879D01*
G01X686514Y-3405884D01*
G01X686514Y-3382592D01*
G03X672305Y-3348287I-48514J0D01*
G01X588713Y-3264695D01*
G03X554408Y-3250486I-34305J-34305D01*
G01X436192Y-3250486D01*
G03X401887Y-3264695I0J-48514D01*
G01X318295Y-3348287D01*
G03X304086Y-3382592I34305J-34305D01*
G01X304086Y-3405886D01*
G01X286725Y-3405886D01*
G03X254000Y-3393186I-32725J-35814D01*
G01X248695Y-3393186D01*
G01X100714Y-3245205D01*
G01X100714Y-1969127D01*
G03X285914Y-1866900I64386J102227D01*
G03X100714Y-1764673I-120814J0D01*
G01X100714Y-1715089D01*
G03X231325Y-1713946I64415J102233D01*
G03X259327Y-1688512I-66225J101046D01*
G01X265206Y-1682461D01*
G01X270906Y-1677148D01*
G01X274880Y-1674114D01*
G01X427851Y-1674114D01*
G03X462155Y-1659905I0J48514D01*
G01X767851Y-1354208D01*
G03X766356Y-1364449I34319J-10240D01*
G01X766356Y-1494448D01*
G03X802170Y-1530262I35814J0D01*
G01X832168Y-1530262D01*
G03X842124Y-1528850I0J35814D01*
G03X852081Y-1530262I9957J34402D01*
G01X868604Y-1530262D01*
G01X868604Y-1615487D01*
G01X803895Y-1680195D01*
G03X789686Y-1714500I34305J-34305D01*
G01X789686Y-1993900D01*
G03X803895Y-2028205I48514J0D01*
G01X905495Y-2129805D01*
G03X912265Y-2135443I34305J34305D01*
G03X1028375Y-2115661I52935J39943D01*
G03X945187Y-2032278I-63175J20161D01*
G01X886714Y-1973805D01*
G01X886714Y-1760952D01*
G03X947552Y-1818729I65786J8352D01*
G01X950342Y-1819052D01*
G01X994395Y-1863105D01*
G03X1028700Y-1877314I34305J34305D01*
G01X1110237Y-1877314D01*
G01X1112440Y-1879061D01*
G03X1184383Y-1888590I43260J50261D01*
G03X1221975Y-1826514I-28683J59790D01*
G01X1270000Y-1826514D01*
G03X1304305Y-1812305I0J48514D01*
G01X1348358Y-1768252D01*
G01X1351148Y-1767929D01*
G03X1398798Y-1661414I-4948J66129D01*
G01X1435100Y-1661414D01*
G03X1469405Y-1647205I0J48514D01*
G01X1551803Y-1564806D01*
G01X1553337Y-1564299D01*
G01X1557056Y-1563418D01*
G03X1590675Y-1544746I-14006J64818D01*
G03X1668486Y-1557645I47625J46146D01*
G01X1668486Y-1590759D01*
G01X1060396Y-2198849D01*
G03X1046186Y-2233154I34305J-34305D01*
G01X1046186Y-2326905D01*
G01X1032892Y-2340198D01*
G01X1030098Y-2340521D01*
G03X975999Y-2436824I4952J-66129D01*
G03X1085737Y-2449409I59051J30174D01*
G03X1177501Y-2446879I44563J49109D01*
G03X1178814Y-2355090I-47201J46579D01*
G01X1178814Y-2267995D01*
G01X1786905Y-1659905D01*
G03X1801114Y-1625600I-34305J34305D01*
G01X1801114Y-1500242D01*
G03X1849252Y-1526629I53086J39742D01*
G01X1852042Y-1526952D01*
G01X2046986Y-1721895D01*
G01X2046986Y-2530542D01*
G03X1976040Y-2540539I-27686J-60258D01*
G01X1973837Y-2542286D01*
G01X1886963Y-2542286D01*
G01X1884760Y-2540539D01*
G03X1775186Y-2590800I-43260J-50261D01*
G03X1884760Y-2641061I66314J0D01*
G01X1886963Y-2639314D01*
G01X1973837Y-2639314D01*
G01X1976040Y-2641061D01*
G03X2046986Y-2651058I43260J50261D01*
G01X2046986Y-2710437D01*
G01X2045239Y-2712640D01*
G03X2095500Y-2822214I50261J-43260D01*
G03X2145761Y-2712640I0J66314D01*
G01X2144014Y-2710437D01*
G01X2144014Y-1701800D01*
G03X2129805Y-1667495I-48514J0D01*
G01X1920652Y-1458342D01*
G01X1920329Y-1455552D01*
G03X1887837Y-1403350I-66129J-4948D01*
G03X1920285Y-1351703I-33637J57150D01*
G03X1896825Y-1295400I-66085J5503D01*
G03X1879356Y-1183242I-42625J50800D01*
G03X1788182Y-1250858I-25156J-61358D01*
G01X1774989Y-1264050D01*
G03X1754349Y-1276296I13665J-46550D01*
G01X1682696Y-1347949D01*
G03X1668486Y-1382254I34305J-34305D01*
G01X1668486Y-1439555D01*
G03X1643248Y-1432471I-30186J-59045D01*
G01X1640458Y-1432148D01*
G01X1609105Y-1400795D01*
G03X1574800Y-1386586I-34305J-34305D01*
G01X1511300Y-1386586D01*
G03X1476995Y-1400795I0J-48514D01*
G01X1431456Y-1446335D01*
G03X1418019Y-1472020I34305J-34305D01*
G01X1418019Y-1364449D01*
G03X1382205Y-1328635I-35814J0D01*
G01X1369314Y-1328635D01*
G01X1369314Y-1308100D01*
G03X1355105Y-1273795I-48514J0D01*
G01X1286494Y-1205185D01*
G03X1252190Y-1190976I-34305J-34305D01*
G01X1163063Y-1190976D01*
G01X1160860Y-1189229D01*
G03X1051286Y-1239490I-43260J-50261D01*
G03X1160860Y-1289751I66314J0D01*
G01X1163063Y-1288004D01*
G01X1232094Y-1288004D01*
G01X1272286Y-1328195D01*
G01X1272286Y-1328635D01*
G01X1252131Y-1328635D01*
G03X1242111Y-1330065I0J-35814D01*
G03X1232091Y-1328635I-10020J-34384D01*
G01X1202093Y-1328635D01*
G03X1192136Y-1330047I0J-35814D01*
G03X1182180Y-1328635I-9957J-34402D01*
G01X1152182Y-1328635D01*
G03X1142225Y-1330047I0J-35814D01*
G03X1132269Y-1328635I-9957J-34402D01*
G01X1102271Y-1328635D01*
G03X1092251Y-1330065I0J-35814D01*
G03X1082231Y-1328635I-10020J-34384D01*
G01X1052233Y-1328635D01*
G03X1042213Y-1330065I0J-35814D01*
G03X1032193Y-1328635I-10020J-34384D01*
G01X1013714Y-1328635D01*
G01X1013714Y-1220286D01*
G01X1151905Y-1082095D01*
G03X1166114Y-1047790I-34305J34305D01*
G01X1166114Y-520700D01*
G01X1166060Y-518414D01*
G01X2301942Y-518414D01*
G03X2343127Y-609612I60258J-27686D01*
G03X2427742Y-556193I19073J63512D01*
G01X2429088Y-556218D01*
G01X2528788Y-556218D01*
G03X2564602Y-520404I0J35814D01*
G01X2564602Y-365904D01*
G03X2528788Y-330090I-35814J0D01*
G01X2429088Y-330090D01*
G03X2423414Y-330542I0J-35814D01*
G01X2423414Y-232520D01*
G02X2432395Y-228710I15525J-24108D01*
G01X2528788Y-228710D01*
G03X2564602Y-192896I0J35814D01*
G01X2564602Y-38396D01*
G03X2564509Y-35814I-35814J0D01*
G01X2571371Y-35814D01*
G03X2571278Y-38396I35721J-2582D01*
G01X2571278Y-192896D01*
G03X2607092Y-228710I35814J0D01*
G01X2706792Y-228710D01*
G03X2742606Y-192896I0J35814D01*
G01X2742606Y-51994D01*
G02X2764186Y-100000I-42606J-48006D01*
G01X2764186Y-3500000D01*
G02X2700000Y-3564186I-64186J0D01*
G01X317274Y-2228083D02*
G01X257274Y-2228083D01*
G03X257274Y-2419711I0J-95814D01*
G01X317274Y-2419711D01*
G03X317274Y-2228083I0J95814D01*
G01X317274Y-3092089D02*
G01X257274Y-3092089D01*
G03X257274Y-3283717I0J-95814D01*
G01X317274Y-3283717D01*
G03X317274Y-3092089I0J95814D01*
G01X755282Y-2419711D02*
G03X755282Y-2228083I0J95814D01*
G01X655282Y-2228083D01*
G03X613167Y-2409959I0J-95814D01*
G03X648031Y-2537343I42102J-56940D01*
G03X708071Y-2419711I7239J70444D01*
G01X755282Y-2419711D01*
G01X655282Y-3283717D02*
G01X755282Y-3283717D01*
G03X755282Y-3092089I0J95814D01*
G01X708071Y-3092089D01*
G03X648031Y-2974457I-52802J47188D01*
G03X613167Y-3101841I7239J-70444D01*
G03X655282Y-3283717I42115J-86062D01*
G01X1034037Y-2825193D02*
G01X1036240Y-2826940D01*
G03X1145814Y-2776679I43260J50261D01*
G03X1036240Y-2726418I-66314J0D01*
G01X1034037Y-2728165D01*
G01X700868Y-2728165D01*
G01X699375Y-2727420D01*
G01X696098Y-2725414D01*
G03X594724Y-2790477I-35698J-55886D01*
G03X710050Y-2825259I65676J9177D01*
G01X1034037Y-2825193D01*
G01X2304037Y-772414D02*
G01X2306240Y-774161D01*
G03X2415814Y-723900I43260J50261D01*
G03X2306240Y-673639I-66314J0D01*
G01X2304037Y-675386D01*
G01X1889224Y-675386D01*
G01X1885618Y-675190D01*
G01X1880897Y-674614D01*
G01X1876254Y-673798D01*
G01X1872646Y-672903D01*
G03X1810940Y-686339I-18446J-63697D01*
G01X1808737Y-688086D01*
G01X1493263Y-688086D01*
G01X1491060Y-686339D01*
G03X1381486Y-736600I-43260J-50261D01*
G03X1491060Y-786861I66314J0D01*
G01X1493263Y-785114D01*
G01X1808737Y-785114D01*
G01X1810940Y-786861D01*
G03X1910011Y-772414I43260J50261D01*
G01X2304037Y-772414D01*
G01X1673022Y-1081352D02*
G03X1637208Y-1045538I-35814J0D01*
G01X1437208Y-1045538D01*
G03X1401394Y-1081352I0J-35814D01*
G01X1401394Y-1241351D01*
G03X1437208Y-1277165I35814J0D01*
G01X1637208Y-1277165D01*
G03X1673022Y-1241351I0J35814D01*
G01X1673022Y-1081352D01*
G01X2425700Y-2388616D02*
G03X2425700Y-2589784I0J-100584D01*
G03X2425700Y-2388616I0J100584D01*
G01X2425700Y-2642616D02*
G03X2425700Y-2843784I0J-100584D01*
G03X2425700Y-2642616I0J100584D01*
G01X2325116Y-3315970D02*
G03X2360930Y-3351784I35814J0D01*
G01X2490470Y-3351784D01*
G03X2526284Y-3315970I0J35814D01*
G01X2526284Y-3186430D01*
G03X2490470Y-3150616I-35814J0D01*
G01X2360930Y-3150616D01*
G03X2325116Y-3186430I0J-35814D01*
G01X2325116Y-3315970D01*
G01X2425700Y-2896616D02*
G03X2425700Y-3097784I0J-100584D01*
G03X2425700Y-2896616I0J100584D01*
G01X2520786Y-935900D02*
G03X2556600Y-971714I35814J0D01*
G01X2726600Y-971714D01*
G03X2762414Y-935900I0J35814D01*
G01X2762414Y-765900D01*
G03X2726600Y-730086I-35814J0D01*
G01X2556600Y-730086D01*
G03X2520786Y-765900I0J-35814D01*
G01X2520786Y-935900D01*
G01X2641600Y-1492086D02*
G03X2641600Y-1733714I0J-120814D01*
G03X2641600Y-1492086I0J120814D01*
G01X2641600Y-1238086D02*
G03X2641600Y-1479714I0J-120814D01*
G03X2641600Y-1238086I0J120814D01*
G01X2641600Y-984086D02*
G03X2641600Y-1225714I0J-120814D01*
G03X2641600Y-984086I0J120814D01*
G01X2641600Y-1746086D02*
G03X2641600Y-1987714I0J-120814D01*
G03X2641600Y-1746086I0J120814D01*
G01X2607092Y-330090D02*
G03X2571278Y-365904I0J-35814D01*
G01X2571278Y-520404D01*
G03X2607092Y-556218I35814J0D01*
G01X2706792Y-556218D01*
G03X2742606Y-520404I0J35814D01*
G01X2742606Y-365904D01*
G03X2706792Y-330090I-35814J0D01*
G01X2607092Y-330090D01*
G01X849006Y-1150003D02*
G01X896395Y-1102614D01*
G01X970537Y-1102614D01*
G01X972740Y-1104361D01*
G03X984387Y-1112394I43260J50261D01*
G01X930895Y-1165886D01*
G03X916686Y-1200190I34305J-34305D01*
G01X916686Y-1328635D01*
G01X902119Y-1328635D01*
G03X892099Y-1330065I0J-35814D01*
G03X882079Y-1328635I-10020J-34384D01*
G01X852081Y-1328635D01*
G03X842124Y-1330047I0J-35814D01*
G03X832168Y-1328635I-9957J-34402D01*
G01X802170Y-1328635D01*
G03X791930Y-1330130I0J-35814D01*
G01X834797Y-1287263D01*
G03X849006Y-1252959I-34305J34305D01*
G01X849006Y-1150003D01*
G54D11*
G01X547446Y-1161402D02*
G01X521538Y-1161402D01*
G01X647192Y-1081656D02*
G01X647192Y-1055748D01*
G01X647192Y-1241148D02*
G01X647192Y-1267056D01*
G01X802424Y-1429448D02*
G01X776516Y-1429448D01*
G01X817169Y-1364703D02*
G01X817169Y-1338795D01*
G01X817169Y-1494194D02*
G01X817169Y-1520102D01*
G01X1381951Y-1429448D02*
G01X1407859Y-1429448D01*
G01X1636954Y-1161351D02*
G01X1662862Y-1161351D01*
G01X1437462Y-1161351D02*
G01X1411554Y-1161351D01*
G01X1537208Y-1241097D02*
G01X1537208Y-1267005D01*
G01X1537208Y-1081606D02*
G01X1537208Y-1055698D01*
G01X2656942Y-366158D02*
G01X2656942Y-340250D01*
G01X2656942Y-520150D02*
G01X2656942Y-546058D01*
G01X2706538Y-443154D02*
G01X2732446Y-443154D01*
G01X2607346Y-443154D02*
G01X2581438Y-443154D01*
G01X165100Y-766154D02*
G01X165100Y-740246D01*
G01X165100Y-935646D02*
G01X165100Y-961554D01*
G01X249846Y-850900D02*
G01X275754Y-850900D01*
G01X80354Y-850900D02*
G01X54446Y-850900D01*
G01X287274Y-3128157D02*
G01X287274Y-3102249D01*
G01X287274Y-3247649D02*
G01X287274Y-3273557D01*
G01X377020Y-3187903D02*
G01X402928Y-3187903D01*
G01X197528Y-3187903D02*
G01X171620Y-3187903D01*
G01X287274Y-2264151D02*
G01X287274Y-2238243D01*
G01X287274Y-2383643D02*
G01X287274Y-2409551D01*
G01X377020Y-2323897D02*
G01X402928Y-2323897D01*
G01X197528Y-2323897D02*
G01X171620Y-2323897D01*
G01X705282Y-3247649D02*
G01X705282Y-3273557D01*
G01X815028Y-3187903D02*
G01X840936Y-3187903D01*
G01X595536Y-3187903D02*
G01X569628Y-3187903D01*
G01X705282Y-2264151D02*
G01X705282Y-2238243D01*
G01X815028Y-2323897D02*
G01X840936Y-2323897D01*
G01X595536Y-2323897D02*
G01X569628Y-2323897D01*
G01X1892292Y-3394646D02*
G01X1892292Y-3368738D01*
G01X1892292Y-3514138D02*
G01X1892292Y-3540046D01*
G01X2425700Y-2424684D02*
G01X2425700Y-2398776D01*
G01X2425700Y-2553716D02*
G01X2425700Y-2579624D01*
G01X2490216Y-2489200D02*
G01X2516124Y-2489200D01*
G01X2361184Y-2489200D02*
G01X2335276Y-2489200D01*
G01X2641600Y-1782154D02*
G01X2641600Y-1756246D01*
G01X2641600Y-1951646D02*
G01X2641600Y-1977554D01*
G01X2726346Y-1866900D02*
G01X2752254Y-1866900D01*
G01X2556854Y-1866900D02*
G01X2530946Y-1866900D01*
G04 Copper End*

G04 TearDrop Start*
G36*
G01X2006592Y-3369403D02*
G01X2031992Y-3369403D01*
G01X2032420Y-3374510D01*
G01X2033629Y-3379693D01*
G01X2035509Y-3384864D01*
G01X2037946Y-3389937D01*
G01X2040829Y-3394825D01*
G01X2044047Y-3399439D01*
G01X2047489Y-3403694D01*
G01X2051042Y-3407503D01*
G01X1987542Y-3407503D01*
G01X1991096Y-3403694D01*
G01X1994537Y-3399439D01*
G01X1997756Y-3394825D01*
G01X2000639Y-3389937D01*
G01X2003076Y-3384864D01*
G01X2004955Y-3379693D01*
G01X2006164Y-3374510D01*
G01X2006592Y-3369403D01*
G37*
G36*
G01X2122672Y-3379105D02*
G01X2148712Y-3361600D01*
G01X2148967Y-3366822D01*
G01X2150032Y-3372352D01*
G01X2151825Y-3377986D01*
G01X2154264Y-3383514D01*
G01X2157266Y-3388732D01*
G01X2160749Y-3393430D01*
G01X2164631Y-3397402D01*
G01X2168828Y-3400442D01*
G01X2107441Y-3416686D01*
G01X2112868Y-3407535D01*
G01X2117634Y-3398643D01*
G01X2119573Y-3394097D01*
G01X2121112Y-3389378D01*
G01X2122171Y-3384407D01*
G01X2122672Y-3379105D01*
G37*
G36*
G01X91938Y-1196022D02*
G01X73978Y-1178062D01*
G01X78452Y-1173177D01*
G01X81873Y-1168558D01*
G01X84349Y-1164149D01*
G01X85991Y-1159892D01*
G01X86906Y-1155733D01*
G01X87205Y-1151613D01*
G01X86995Y-1147476D01*
G01X86386Y-1143267D01*
G01X84407Y-1134402D01*
G01X82141Y-1124566D01*
G01X80458Y-1113306D01*
G01X80108Y-1107001D01*
G01X80232Y-1100171D01*
G01X169829Y-1189768D01*
G01X162999Y-1189892D01*
G01X156694Y-1189542D01*
G01X145434Y-1187859D01*
G01X135598Y-1185593D01*
G01X126733Y-1183614D01*
G01X122524Y-1183005D01*
G01X118387Y-1182795D01*
G01X114267Y-1183094D01*
G01X110108Y-1184009D01*
G01X105851Y-1185651D01*
G01X101442Y-1188127D01*
G01X96823Y-1191548D01*
G01X91938Y-1196022D01*
G37*
G36*
G01X290096Y-1612900D02*
G01X271164Y-1638300D01*
G01X267250Y-1638688D01*
G01X263334Y-1639795D01*
G01X259423Y-1641539D01*
G01X255521Y-1643835D01*
G01X247773Y-1649750D01*
G01X240136Y-1656870D01*
G01X225390Y-1672047D01*
G01X218376Y-1678766D01*
G01X211665Y-1684011D01*
G01X230596Y-1558723D01*
G01X238145Y-1568828D01*
G01X244403Y-1578616D01*
G01X250000Y-1587769D01*
G01X255566Y-1595970D01*
G01X258534Y-1599614D01*
G01X261729Y-1602901D01*
G01X265232Y-1605791D01*
G01X269120Y-1608244D01*
G01X273471Y-1610222D01*
G01X278365Y-1611683D01*
G01X283881Y-1612589D01*
G01X290096Y-1612900D01*
G37*
G36*
G01X1037817Y-2789379D02*
G01X1037817Y-2763979D01*
G01X1040664Y-2763754D01*
G01X1043538Y-2763117D01*
G01X1049210Y-2760844D01*
G01X1054523Y-2757630D01*
G01X1059167Y-2753946D01*
G01X1059167Y-2799413D01*
G01X1054523Y-2795729D01*
G01X1049210Y-2792515D01*
G01X1043538Y-2790242D01*
G01X1040664Y-2789605D01*
G01X1037817Y-2789379D01*
G37*
G36*
G01X698405Y-2763979D02*
G01X705293Y-2789379D01*
G01X702463Y-2789633D01*
G01X699521Y-2790352D01*
G01X693617Y-2792914D01*
G01X688214Y-2796537D01*
G01X683943Y-2800691D01*
G01X677055Y-2755749D01*
G01X681995Y-2758771D01*
G01X687271Y-2761407D01*
G01X692777Y-2763272D01*
G01X698405Y-2763979D01*
G37*
G36*
G01X1977617Y-2603500D02*
G01X1977617Y-2578100D01*
G01X1980464Y-2577875D01*
G01X1983338Y-2577238D01*
G01X1989010Y-2574965D01*
G01X1994323Y-2571751D01*
G01X1998967Y-2568066D01*
G01X1998967Y-2613534D01*
G01X1994323Y-2609849D01*
G01X1989010Y-2606635D01*
G01X1983338Y-2604362D01*
G01X1980464Y-2603725D01*
G01X1977617Y-2603500D01*
G37*
G36*
G01X1883183Y-2578100D02*
G01X1883183Y-2603500D01*
G01X1880336Y-2603725D01*
G01X1877462Y-2604362D01*
G01X1871790Y-2606635D01*
G01X1866477Y-2609849D01*
G01X1861833Y-2613534D01*
G01X1861833Y-2568066D01*
G01X1866477Y-2571751D01*
G01X1871790Y-2574965D01*
G01X1877462Y-2577238D01*
G01X1880336Y-2577875D01*
G01X1883183Y-2578100D01*
G37*
G36*
G01X1892655Y-1480994D02*
G01X1874694Y-1498955D01*
G01X1872521Y-1497100D01*
G01X1870039Y-1495519D01*
G01X1864421Y-1493115D01*
G01X1858392Y-1491632D01*
G01X1852503Y-1490953D01*
G01X1884653Y-1458803D01*
G01X1885332Y-1464692D01*
G01X1886815Y-1470721D01*
G01X1889219Y-1476339D01*
G01X1890800Y-1478821D01*
G01X1892655Y-1480994D01*
G37*
G36*
G01X2082800Y-2714217D02*
G01X2108200Y-2714217D01*
G01X2108425Y-2717064D01*
G01X2109062Y-2719938D01*
G01X2111335Y-2725610D01*
G01X2114549Y-2730923D01*
G01X2118234Y-2735567D01*
G01X2072766Y-2735567D01*
G01X2076451Y-2730923D01*
G01X2079665Y-2725610D01*
G01X2081938Y-2719938D01*
G01X2082575Y-2717064D01*
G01X2082800Y-2714217D01*
G37*
G36*
G01X2307817Y-736600D02*
G01X2307817Y-711200D01*
G01X2310664Y-710975D01*
G01X2313538Y-710338D01*
G01X2319210Y-708065D01*
G01X2324523Y-704851D01*
G01X2329167Y-701166D01*
G01X2329167Y-746634D01*
G01X2324523Y-742949D01*
G01X2319210Y-739735D01*
G01X2313538Y-737462D01*
G01X2310664Y-736825D01*
G01X2307817Y-736600D01*
G37*
G36*
G01X1812517Y-749300D02*
G01X1812517Y-723900D01*
G01X1815364Y-723675D01*
G01X1818238Y-723038D01*
G01X1823910Y-720765D01*
G01X1829223Y-717551D01*
G01X1833867Y-713866D01*
G01X1833867Y-759334D01*
G01X1829223Y-755649D01*
G01X1823910Y-752435D01*
G01X1818238Y-750162D01*
G01X1815364Y-749525D01*
G01X1812517Y-749300D01*
G37*
G36*
G01X1888250Y-711200D02*
G01X1903503Y-736600D01*
G01X1900417Y-736823D01*
G01X1897238Y-737474D01*
G01X1894072Y-738525D01*
G01X1891025Y-739948D01*
G01X1888204Y-741715D01*
G01X1885714Y-743798D01*
G01X1883662Y-746170D01*
G01X1882153Y-748802D01*
G01X1863221Y-707464D01*
G01X1868832Y-708857D01*
G01X1875627Y-710051D01*
G01X1882475Y-710886D01*
G01X1888250Y-711200D01*
G37*
G36*
G01X2329006Y-1143355D02*
G01X2311045Y-1125394D01*
G01X2312900Y-1123221D01*
G01X2314481Y-1120739D01*
G01X2316885Y-1115121D01*
G01X2318368Y-1109092D01*
G01X2319047Y-1103203D01*
G01X2351197Y-1135353D01*
G01X2345308Y-1136032D01*
G01X2339279Y-1137515D01*
G01X2333661Y-1139919D01*
G01X2331179Y-1141500D01*
G01X2329006Y-1143355D01*
G37*
G36*
G01X2343383Y-1046387D02*
G01X2314937Y-1038912D01*
G01X2317013Y-1036537D01*
G01X2318848Y-1033821D01*
G01X2320382Y-1030851D01*
G01X2321554Y-1027712D01*
G01X2322303Y-1024492D01*
G01X2322571Y-1021275D01*
G01X2322295Y-1018149D01*
G01X2321416Y-1015198D01*
G01X2364444Y-1029888D01*
G01X2359134Y-1033273D01*
G01X2353449Y-1037524D01*
G01X2343383Y-1046387D01*
G37*
G36*
G01X1427306Y-1143355D02*
G01X1409345Y-1125394D01*
G01X1411200Y-1123221D01*
G01X1412781Y-1120739D01*
G01X1415185Y-1115121D01*
G01X1416668Y-1109092D01*
G01X1417347Y-1103203D01*
G01X1449497Y-1135353D01*
G01X1443608Y-1136032D01*
G01X1437579Y-1137515D01*
G01X1431961Y-1139919D01*
G01X1429479Y-1141500D01*
G01X1427306Y-1143355D01*
G37*
G36*
G01X1114017Y-1841500D02*
G01X1114017Y-1816100D01*
G01X1116864Y-1815875D01*
G01X1119738Y-1815238D01*
G01X1125410Y-1812965D01*
G01X1130723Y-1809751D01*
G01X1135367Y-1806066D01*
G01X1135367Y-1851534D01*
G01X1130723Y-1847849D01*
G01X1125410Y-1844635D01*
G01X1119738Y-1842362D01*
G01X1116864Y-1841725D01*
G01X1114017Y-1841500D01*
G37*
G36*
G01X990955Y-1773094D02*
G01X972994Y-1791055D01*
G01X970821Y-1789200D01*
G01X968339Y-1787619D01*
G01X962721Y-1785215D01*
G01X956692Y-1783732D01*
G01X950803Y-1783053D01*
G01X982953Y-1750903D01*
G01X983632Y-1756792D01*
G01X985115Y-1762821D01*
G01X987519Y-1768439D01*
G01X989100Y-1770921D01*
G01X990955Y-1773094D01*
G37*
G36*
G01X974317Y-1066800D02*
G01X974317Y-1041400D01*
G01X977164Y-1041175D01*
G01X980038Y-1040538D01*
G01X985710Y-1038265D01*
G01X991023Y-1035051D01*
G01X995667Y-1031366D01*
G01X995667Y-1076834D01*
G01X991023Y-1073149D01*
G01X985710Y-1069935D01*
G01X980038Y-1067662D01*
G01X977164Y-1067025D01*
G01X974317Y-1066800D01*
G37*
G36*
G01X1055544Y-2368195D02*
G01X1073505Y-2386156D01*
G01X1071650Y-2388329D01*
G01X1070069Y-2390811D01*
G01X1067665Y-2396429D01*
G01X1066182Y-2402458D01*
G01X1065503Y-2408347D01*
G01X1033353Y-2376197D01*
G01X1039242Y-2375518D01*
G01X1045271Y-2374035D01*
G01X1050889Y-2371631D01*
G01X1053371Y-2370050D01*
G01X1055544Y-2368195D01*
G37*
G36*
G01X1841734Y-1283876D02*
G01X1817177Y-1272511D01*
G01X1818984Y-1270335D01*
G01X1820558Y-1267716D01*
G01X1822935Y-1261611D01*
G01X1824150Y-1255125D01*
G01X1824047Y-1249186D01*
G01X1862108Y-1274057D01*
G01X1856624Y-1275665D01*
G01X1851196Y-1277712D01*
G01X1846131Y-1280385D01*
G01X1841734Y-1283876D01*
G37*
G36*
G01X1325706Y-1740255D02*
G01X1307745Y-1722294D01*
G01X1309600Y-1720121D01*
G01X1311181Y-1717639D01*
G01X1313585Y-1712021D01*
G01X1315068Y-1705992D01*
G01X1315747Y-1700103D01*
G01X1347897Y-1732253D01*
G01X1342008Y-1732932D01*
G01X1335979Y-1734415D01*
G01X1330361Y-1736819D01*
G01X1327879Y-1738400D01*
G01X1325706Y-1740255D01*
G37*
G36*
G01X1528254Y-1537707D02*
G01X1505560Y-1524479D01*
G01X1507383Y-1522298D01*
G01X1508955Y-1519713D01*
G01X1511318Y-1513736D01*
G01X1512581Y-1507362D01*
G01X1512679Y-1501405D01*
G01X1549212Y-1528471D01*
G01X1543571Y-1529807D01*
G01X1537963Y-1531661D01*
G01X1532739Y-1534229D01*
G01X1528254Y-1537707D01*
G37*
G36*
G01X1599845Y-1478106D02*
G01X1617806Y-1460145D01*
G01X1619979Y-1462000D01*
G01X1622461Y-1463581D01*
G01X1628079Y-1465985D01*
G01X1634108Y-1467468D01*
G01X1639997Y-1468147D01*
G01X1607847Y-1500297D01*
G01X1607168Y-1494408D01*
G01X1605685Y-1488379D01*
G01X1603281Y-1482761D01*
G01X1601700Y-1480279D01*
G01X1599845Y-1478106D01*
G37*
G36*
G01X1489483Y-723900D02*
G01X1489483Y-749300D01*
G01X1486636Y-749525D01*
G01X1483762Y-750162D01*
G01X1478090Y-752435D01*
G01X1472777Y-755649D01*
G01X1468133Y-759334D01*
G01X1468133Y-713866D01*
G01X1472777Y-717551D01*
G01X1478090Y-720765D01*
G01X1483762Y-723038D01*
G01X1486636Y-723675D01*
G01X1489483Y-723900D01*
G37*
G36*
G01X977545Y-932006D02*
G01X995506Y-914045D01*
G01X997679Y-915900D01*
G01X1000161Y-917481D01*
G01X1005779Y-919885D01*
G01X1011808Y-921368D01*
G01X1017697Y-922047D01*
G01X985547Y-954197D01*
G01X984868Y-948308D01*
G01X983385Y-942279D01*
G01X980981Y-936661D01*
G01X979400Y-934179D01*
G01X977545Y-932006D01*
G37*
G36*
G01X689383Y-876300D02*
G01X689383Y-901700D01*
G01X686536Y-901925D01*
G01X683662Y-902562D01*
G01X677990Y-904835D01*
G01X672677Y-908049D01*
G01X668033Y-911734D01*
G01X668033Y-866266D01*
G01X672677Y-869951D01*
G01X677990Y-873165D01*
G01X683662Y-875438D01*
G01X686536Y-876075D01*
G01X689383Y-876300D01*
G37*
G36*
G01X1159283Y-1226790D02*
G01X1159283Y-1252190D01*
G01X1156436Y-1252415D01*
G01X1153562Y-1253052D01*
G01X1147890Y-1255325D01*
G01X1142577Y-1258539D01*
G01X1137933Y-1262223D01*
G01X1137933Y-1216756D01*
G01X1142577Y-1220440D01*
G01X1147890Y-1223654D01*
G01X1153562Y-1225927D01*
G01X1156436Y-1226564D01*
G01X1159283Y-1226790D01*
G37*
G36*
G01X2393338Y-211028D02*
G01X2415618Y-152827D01*
G03X2429088Y-112416I-53882J40411D01*
G01X2429088Y-192896D01*
G03X2393338Y-211028I9850J-63732D01*
G37*
G36*
G01X1022117Y-798702D02*
G01X1051541Y-805199D01*
G01X1049636Y-807454D01*
G01X1047953Y-810141D01*
G01X1045431Y-816354D01*
G01X1044684Y-819649D01*
G01X1044341Y-822914D01*
G01X1044446Y-826035D01*
G01X1045047Y-828898D01*
G01X1003528Y-810367D01*
G01X1013352Y-805303D01*
G01X1018043Y-802180D01*
G01X1022117Y-798702D01*
G37*
G36*
G01X1051018Y-769800D02*
G03X1104900Y-690519I-180881J180881D01*
G01X1117600Y-721179D01*
G01X1104900Y-777240D01*
G03X1051018Y-805721I19237J-101600D01*
G01X1051018Y-769800D01*
G37*
G36*
G01X1108620Y-529680D02*
G03X1036139Y-482600I-147046J-147047D01*
G01X1066800Y-469900D01*
G01X1122861Y-482600D01*
G03X1126580Y-511720I20684J-12155D01*
G01X1108620Y-529680D01*
G37*
G36*
G01X335815Y-535224D02*
G01X353776Y-553185D01*
G01X351921Y-555358D01*
G01X350340Y-557840D01*
G01X347936Y-563458D01*
G01X346452Y-569487D01*
G01X345774Y-575376D01*
G01X313624Y-543226D01*
G01X319513Y-542548D01*
G01X325542Y-541064D01*
G01X331160Y-538660D01*
G01X333642Y-537079D01*
G01X335815Y-535224D01*
G37*
G04 TearDrop End*

G04 Pad Start*
G54D12*
G01X1765292Y-3454392D03*
G54D13*
G01X1892292Y-3454392D03*
G01X2019292Y-3454392D03*
G01X2146292Y-3454392D03*
G01X2273292Y-3454392D03*
G54D14*
G01X287274Y-3187903D03*
G01X287274Y-2323897D03*
G54D16*
G01X705282Y-3187903D03*
G01X705282Y-2323897D03*
G54D17*
G01X647192Y-1161402D03*
G54D18*
G01X1537208Y-1161351D03*
G54D19*
G01X1367206Y-1429448D03*
G01X1317168Y-1429448D03*
G01X1267130Y-1429448D03*
G01X1217092Y-1429448D03*
G01X1167181Y-1429448D03*
G01X1117270Y-1429448D03*
G01X1067232Y-1429448D03*
G01X1017194Y-1429448D03*
G01X967156Y-1429448D03*
G01X917118Y-1429448D03*
G01X867080Y-1429448D03*
G01X817169Y-1429448D03*
G54D20*
G01X165100Y-850900D03*
G54D21*
G01X165100Y-1104900D03*
G01X165100Y-1358900D03*
G01X165100Y-1612900D03*
G01X165100Y-1866900D03*
G54D20*
G01X2641600Y-850900D03*
G54D21*
G01X2641600Y-1104900D03*
G01X2641600Y-1358900D03*
G01X2641600Y-1612900D03*
G01X2641600Y-1866900D03*
G54D22*
G01X2425700Y-3251200D03*
G54D23*
G01X2425700Y-2997200D03*
G01X2425700Y-2743200D03*
G01X2425700Y-2489200D03*
G54D24*
G01X2478938Y-115646D03*
G01X2656942Y-115646D03*
G01X2656942Y-443154D03*
G01X2478938Y-443154D03*
G04 Pad End*

G04 Via Start*
G54D25*
G01X1079500Y-2776679D03*
G01X660400Y-2781300D03*
G01X2019300Y-2590800D03*
G01X1841500Y-2590800D03*
G01X1854200Y-1460500D03*
G01X2095500Y-2755900D03*
G01X2349500Y-723900D03*
G01X1854200Y-736600D03*
G01X315321Y-573679D03*
G01X2349500Y-1104900D03*
G01X2349500Y-1003300D03*
G01X1447800Y-1104900D03*
G01X1155700Y-1828800D03*
G01X952500Y-1752600D03*
G01X1016000Y-1054100D03*
G01X1035050Y-2406650D03*
G01X1854200Y-1244600D03*
G01X1130300Y-2400300D03*
G01X1854200Y-1346200D03*
G01X965200Y-2095500D03*
G01X1244600Y-1701800D03*
G01X1346200Y-1701800D03*
G01X1543050Y-1498600D03*
G01X1638300Y-1498600D03*
G01X1117600Y-1239490D03*
G01X1447800Y-736600D03*
G01X1016000Y-952500D03*
G01X647700Y-889000D03*
G01X1016000Y-838200D03*
G01X711200Y-2159000D03*
G01X1091145Y-1310950D03*
G01X2362200Y-546100D03*
G04 Via End*

G04 Track Start*
G54D11*
G01X1079500Y-2776679D02*
G01X665021Y-2776679D01*
G01X660400Y-2781300D01*
G01X2019300Y-2590800D02*
G01X1841500Y-2590800D01*
G01X1854200Y-1460500D02*
G01X2095500Y-1701800D01*
G01X2095500Y-2755900D01*
G01X2374900Y-431800D02*
G01X2336800Y-469900D01*
G01X2253161Y-1201239D02*
G01X2349500Y-1104900D01*
G01X2253161Y-2966085D02*
G01X2253161Y-1201239D01*
G01X1155700Y-1828800D02*
G01X1028700Y-1828800D01*
G01X952500Y-1752600D01*
G01X315321Y-573679D02*
G01X419100Y-469900D01*
G01X1803400Y-1346200D02*
G01X1854200Y-1346200D01*
G01X1854200Y-1253449D02*
G01X1854200Y-1244600D01*
G01X1788654Y-1310600D02*
G01X1797049Y-1310600D01*
G01X1854200Y-1253449D01*
G01X1035050Y-2406650D02*
G01X1094700Y-2347000D01*
G01X1219200Y-1778000D02*
G01X1270000Y-1778000D01*
G01X1346200Y-1701800D01*
G01X1752600Y-1397000D02*
G01X1803400Y-1346200D01*
G01X1130300Y-2400300D02*
G01X1130300Y-2247900D01*
G01X1752600Y-1625600D01*
G01X1752600Y-1397000D01*
G01X1717000Y-1382254D02*
G01X1788654Y-1310600D01*
G01X1094700Y-2347000D02*
G01X1094700Y-2233154D01*
G01X1717000Y-1610854D01*
G01X1717000Y-1382254D01*
G01X1465761Y-1518739D02*
G01X1447800Y-1536700D01*
G01X1465761Y-1480639D02*
G01X1465761Y-1518739D01*
G01X1511300Y-1435100D02*
G01X1465761Y-1480639D01*
G01X1574800Y-1435100D02*
G01X1511300Y-1435100D01*
G01X1638300Y-1498600D02*
G01X1574800Y-1435100D01*
G01X1543050Y-1498600D02*
G01X1543050Y-1504950D01*
G01X1435100Y-1612900D01*
G01X1117600Y-520700D02*
G01X1066800Y-469900D01*
G01X2336800Y-469900D02*
G01X1066800Y-469900D01*
G01X419100Y-469900D02*
G01X1066800Y-469900D01*
G01X647700Y-889000D02*
G01X952500Y-889000D01*
G01X1016000Y-952500D01*
G01X1117600Y-1047790D02*
G01X1117600Y-721179D01*
G01X1117600Y-520700D01*
G01X1016000Y-838200D02*
G01X1016000Y-822779D01*
G01X1117600Y-721179D01*
G01X1854200Y-736600D02*
G01X1447800Y-736600D01*
G01X1854200Y-736600D02*
G01X1866900Y-723900D01*
G01X2349500Y-723900D01*
G01X1384300Y-1168400D02*
G01X1447800Y-1104900D01*
G01X1092200Y-1168400D02*
G01X1384300Y-1168400D01*
G01X2133600Y-3429000D02*
G01X2146300Y-3072946D01*
G01X2253161Y-2966085D01*
G01X2217561Y-2951339D02*
G01X2098000Y-3070900D01*
G01X2217561Y-1186493D02*
G01X2217561Y-2951339D01*
G01X2283145Y-1120909D02*
G01X2217561Y-1186493D01*
G01X2283145Y-1099648D02*
G01X2283145Y-1120909D01*
G01X2291100Y-1091694D02*
G01X2283145Y-1099648D01*
G01X2291100Y-1080710D02*
G01X2291100Y-1091694D01*
G01X2349500Y-1022310D02*
G01X2291100Y-1080710D01*
G01X2349500Y-1003300D02*
G01X2349500Y-1022310D01*
G01X2098000Y-3070900D02*
G01X2098000Y-3261400D01*
G01X2019292Y-3340108D01*
G01X2019292Y-3454392D01*
G01X2374900Y-211506D02*
G01X2374900Y-431800D01*
G01X2434006Y-152400D02*
G01X2374900Y-211506D01*
G01X2481548Y-152400D02*
G01X2434006Y-152400D01*
G01X2478938Y-115646D02*
G01X2481548Y-118256D01*
G01X2481548Y-152400D01*
G01X52200Y-1217800D02*
G01X165100Y-1104900D01*
G01X52200Y-3265300D02*
G01X52200Y-1217800D01*
G01X876300Y-1054100D02*
G01X1016000Y-1054100D01*
G01X800492Y-1252959D02*
G01X800492Y-1129908D01*
G01X876300Y-1054100D01*
G01X427851Y-1625600D02*
G01X800492Y-1252959D01*
G01X165100Y-1612900D02*
G01X177800Y-1625600D01*
G01X427851Y-1625600D01*
G01X266700Y-3454400D02*
G01X254000Y-3441700D01*
G01X228600Y-3441700D01*
G01X52200Y-3265300D01*
G01X1765292Y-3454392D02*
G01X638000Y-3454398D01*
G01X638000Y-3382592D01*
G01X554408Y-3299000D01*
G01X436192Y-3299000D01*
G01X352600Y-3382592D01*
G01X352600Y-3454399D01*
G01X266700Y-3454400D01*
G01X2478938Y-443154D02*
G01X2465146Y-443154D01*
G01X2362200Y-546100D01*
G01X867080Y-1429448D02*
G01X817169Y-1429448D01*
G01X917118Y-1635582D02*
G01X838200Y-1714500D01*
G01X838200Y-1993900D01*
G01X939800Y-2095500D01*
G01X965200Y-2095500D01*
G01X924257Y-1429448D02*
G01X917118Y-1436588D01*
G01X917118Y-1635582D01*
G01X965200Y-1456804D02*
G01X965200Y-1200190D01*
G01X1117600Y-1047790D01*
G01X1067232Y-1429448D02*
G01X1016000Y-1429448D01*
G01X1016000Y-1244600D01*
G01X1092200Y-1168400D01*
G01X1117600Y-1404379D02*
G01X1117600Y-1676400D01*
G01X1219200Y-1778000D01*
G01X1174193Y-1417968D02*
G01X1174193Y-1631393D01*
G01X1244600Y-1701800D01*
G01X1213814Y-1493214D02*
G01X1213814Y-1400771D01*
G01X1224231Y-1503631D02*
G01X1213814Y-1493214D01*
G01X1435100Y-1612900D02*
G01X1282700Y-1612900D01*
G01X1224231Y-1554431D01*
G01X1224231Y-1503631D01*
G01X1295400Y-1536700D02*
G01X1270000Y-1511300D01*
G01X1270000Y-1406919D01*
G01X1447800Y-1536700D02*
G01X1295400Y-1536700D01*
G01X1320800Y-1308100D02*
G01X1320800Y-1407681D01*
G01X1252190Y-1239490D02*
G01X1320800Y-1308100D01*
G01X1117600Y-1239490D02*
G01X1252190Y-1239490D01*
G04 Track End*

M02*

